<svg xmlns="http://www.w3.org/2000/svg" version="1.1" xmlns:xlink="http://www.w3.org/1999/xlink" xmlns:svgjs="http://svgjs.dev/svgjs" width="128" height="128" viewBox="0 0 128 128"><g transform="matrix(0.8046875,0,0,0.8046875,12.41184074821259,12.814873242367177)"><svg viewBox="0 0 98 98" data-background-color="#ffffff" preserveAspectRatio="xMidYMid meet" height="127" width="128" xmlns="http://www.w3.org/2000/svg" xmlns:xlink="http://www.w3.org/1999/xlink"><g id="tight-bounds" transform="matrix(1,0,0,1,0.08387967645792571,0.08387967645792571)"><svg viewBox="0 0 97.83224064708415 97.83224064708415" height="97.83224064708415" width="97.83224064708415"><g><svg></svg></g><g><svg viewBox="0 0 97.83224064708415 97.83224064708415" height="97.83224064708415" width="97.83224064708415"><g><path d="M0 48.916c0-27.016 21.9-48.916 48.916-48.916 27.016 0 48.916 21.9 48.916 48.916 0 27.016-21.9 48.916-48.916 48.916-27.016 0-48.916-21.9-48.916-48.916zM48.916 94.547c25.201 0 45.63-20.429 45.631-45.631 0-25.201-20.429-45.63-45.631-45.63-25.201 0-45.63 20.429-45.63 45.63 0 25.201 20.429 45.63 45.63 45.631z" data-fill-palette-color="tertiary" fill="#ffffff" stroke="transparent"></path><ellipse rx="46.95947551060039" ry="46.95947551060039" cx="48.916120323542074" cy="48.916120323542074" fill="#ffffff" stroke="transparent" stroke-width="0" fill-opacity="1" data-fill-palette-color="tertiary"></ellipse></g><g transform="matrix(1,0,0,1,23.47539391502934,30.699303882878635)"><svg viewBox="0 0 50.88145281702547 36.43363288132688" height="36.43363288132688" width="50.88145281702547"><g><svg viewBox="0 0 50.88145281702547 36.43363288132688" height="36.43363288132688" width="50.88145281702547"><g><svg viewBox="0 0 50.88145281702547 36.43363288132688" height="36.43363288132688" width="50.88145281702547"><g id="textblocktransform"><svg viewBox="0 0 50.88145281702547 36.43363288132688" height="36.43363288132688" width="50.88145281702547" id="textblock"><g><svg viewBox="0 0 50.88145281702547 36.43363288132688" height="36.43363288132688" width="50.88145281702547"><g><svg viewBox="0 0 50.88145281702547 36.43363288132688" height="36.43363288132688" width="50.88145281702547"><g><svg xmlns="http://www.w3.org/2000/svg" xmlns:xlink="http://www.w3.org/1999/xlink" version="1.1" x="0" y="0" viewBox="1.5 15.2 97.19999999999999 69.6" enable-background="new 0 0 100 100" xml:space="preserve" height="36.43363288132688" width="50.88145281702547" class="icon-icon-0" data-fill-palette-color="quaternary" id="icon-0"><g fill="#ffffff" data-fill-palette-color="quaternary"><path d="M92.6 66.8v-5-3.2-9.2l0 0V23.7c0-4.7-3.8-8.5-8.5-8.5H52.4 15.9c-4.7 0-8.5 3.8-8.5 8.5v34.9 1.9 6.3c0 1.1-0.4 2.2-1.1 3L2 75.1c-0.3 0.4-0.5 0.9-0.5 1.4V79c0 3.2 2.6 5.8 5.8 5.8h85.6c3.2 0 5.8-2.6 5.8-5.8v-2.5c0-0.5-0.2-1-0.5-1.4l-4.3-5.3C93 69 92.6 67.9 92.6 66.8zM59.2 76.4c0 1.6-1.3 2.9-2.9 2.9H43.8c-1.6 0-2.9-1.3-2.9-2.9v-0.6h18.4V76.4zM84.2 61.8v5.5H15.9v-6.4-2.2V23.7c0 0 0 0 0 0h40.3 27.9c0 0 0 0 0 0v34.9 2.2 0.6h0V61.8zM66.5 47.9c-0.6-1.3 0-2.8 1.3-3.4 1.3-0.6 2.8 0 3.4 1.3 0.6 1.3 0 2.8-1.3 3.4-0.2 0.1-0.5 0.2-0.7 0.2C68 49.5 66.9 48.9 66.5 47.9zM72.9 58.6c-0.2 1.1-1.1 2-2.2 2.2-0.2 0-0.5 0-0.7 0-1.4-0.2-2.4-1.5-2.1-2.9 0.2-1.4 1.5-2.4 2.9-2.1C72.2 55.9 73.1 57.2 72.9 58.6zM62.8 35.6c-1.1-0.7-2.6-0.5-3.4 0.6L49.7 49c-1.9 0.1-3.7 1.2-4.8 2.9-1.9 2.9-1 6.8 1.9 8.7 2.9 1.9 6.8 1 8.7-1.9 1.1-1.7 1.3-3.8 0.6-5.6l7.5-14.1C64.3 37.8 63.9 36.3 62.8 35.6zM52.4 56.6c-0.8 1.2-2.3 1.5-3.5 0.8-1.2-0.8-1.5-2.3-0.8-3.5 0.8-1.2 2.3-1.5 3.5-0.8C52.8 53.9 53.1 55.4 52.4 56.6zM44.4 39.1c-1.6 0.6-3.1 1.3-4.5 2.3-1.4 1-2.6 2.2-3.6 3.5-0.2 0.3-0.5 0.7-0.7 1l-0.2 0.3 0 0.1 0 0c0 0 0 0 0 0l0 0-0.1 0.2-0.4 0.6c-0.4 0.7-0.7 1.5-1 2.3-0.6 1.6-1 3.3-1.1 5-0.1 1.7 0 3.4 0.4 5.1 0.4 1.5 1 3 1.7 4.4h-6c-0.4-1-0.8-2-1.1-3.1-0.6-2.2-0.8-4.5-0.7-6.7 0.1-2.3 0.5-4.5 1.3-6.7 0.4-1.1 0.8-2.1 1.4-3.2l0.4-0.7 0.1-0.2 0.1-0.2 0.2-0.4c0.3-0.5 0.6-1 0.9-1.4 1.3-1.9 3-3.5 4.8-4.9 1.8-1.4 3.9-2.5 6-3.3 2.2-0.8 4.4-1.3 6.7-1.4 2.3-0.1 4.6 0.1 6.9 0.6 0.5 0.1 1 0.3 1.5 0.4-0.4 0.3-0.8 0.7-1.1 1.1l-3.4 4.5c-1.2-0.2-2.4-0.3-3.6-0.3C47.7 38.3 46 38.6 44.4 39.1z" fill="#000000" data-fill-palette-color="quaternary"></path></g></svg></g></svg></g></svg></g></svg></g></svg></g><g></g></svg></g></svg></g></svg></g><defs></defs></svg><rect width="97.83224064708415" height="97.83224064708415" fill="none" stroke="none" visibility="hidden"></rect></g></svg></g></svg>