<svg xmlns="http://www.w3.org/2000/svg" version="1.1" xmlns:xlink="http://www.w3.org/1999/xlink" xmlns:svgjs="http://svgjs.dev/svgjs" width="2000" height="1247" viewBox="0 0 2000 1247"><g transform="matrix(1,0,0,1,-1.2121212121212466,242.30063824479612)"><svg viewBox="0 0 396 247" data-background-color="#ffffff" preserveAspectRatio="xMidYMid meet" height="1247" width="2000" xmlns="http://www.w3.org/2000/svg" xmlns:xlink="http://www.w3.org/1999/xlink"><g id="tight-bounds" transform="matrix(1,0,0,1,0.2400000000000091,-0.09999999999999432)"><svg viewBox="0 0 395.52 247.2" height="247.2" width="395.52"><g><svg></svg></g><g><svg viewBox="0 0 395.52 247.2" height="247.2" width="395.52"><g transform="matrix(1,0,0,1,75.54432000000001,60.212823536061336)"><svg viewBox="0 0 244.43135999999996 126.77435292787732" height="126.77435292787732" width="244.43135999999996"><g><svg viewBox="0 0 244.43135999999996 126.77435292787732" height="126.77435292787732" width="244.43135999999996"><g><svg viewBox="0 0 244.43135999999996 126.77435292787732" height="126.77435292787732" width="244.43135999999996"><g transform="matrix(1,0,0,1,0,78.3516360442279)"><svg viewBox="0 0 244.43135999999996 48.42271688364941" height="48.42271688364941" width="244.43135999999996"><g id="textblocktransform"><svg viewBox="0 0 244.43135999999996 48.42271688364941" height="48.42271688364941" width="244.43135999999996" id="textblock"><g><svg viewBox="0 0 244.43135999999996 48.42271688364941" height="48.42271688364941" width="244.43135999999996"><g transform="matrix(1,0,0,1,0,0)"><svg width="244.43135999999996" viewBox="3.85 -38.2 195.08 38.650000000000006" height="48.42271688364941" data-palette-color="#323660"><path d="M22.6-31.15L8.4-31.15 8.4-19.5 21.1-19.5 21.1-15.75 8.4-15.75 8.4-3.75 22.6-3.75 22.6 0 3.85 0 3.85-34.9 22.6-34.9 22.6-31.15ZM40.65-27.4L40.65-23.65 34.9-23.65 34.9 0 30.35 0 30.35-23.65 26.8-23.65 26.8-27.4 30.35-27.4 30.35-29.35Q30.35-33.95 32.72-36.08 35.1-38.2 40.35-38.2L40.35-38.2 40.35-34.4Q37.35-34.4 36.12-33.23 34.9-32.05 34.9-29.35L34.9-29.35 34.9-27.4 40.65-27.4ZM57.09-27.4L57.09-23.65 51.34-23.65 51.34 0 46.8 0 46.8-23.65 43.24-23.65 43.24-27.4 46.8-27.4 46.8-29.35Q46.8-33.95 49.17-36.08 51.55-38.2 56.8-38.2L56.8-38.2 56.8-34.4Q53.8-34.4 52.57-33.23 51.34-32.05 51.34-29.35L51.34-29.35 51.34-27.4 57.09-27.4ZM87.39-14.75Q87.39-13.45 87.24-12L87.24-12 65.34-12Q65.59-7.95 68.12-5.68 70.64-3.4 74.24-3.4L74.24-3.4Q77.19-3.4 79.17-4.78 81.14-6.15 81.94-8.45L81.94-8.45 86.84-8.45Q85.74-4.5 82.44-2.02 79.14 0.45 74.24 0.45L74.24 0.45Q70.34 0.45 67.27-1.3 64.19-3.05 62.44-6.28 60.69-9.5 60.69-13.75L60.69-13.75Q60.69-18 62.39-21.2 64.09-24.4 67.17-26.13 70.24-27.85 74.24-27.85L74.24-27.85Q78.14-27.85 81.14-26.15 84.14-24.45 85.77-21.48 87.39-18.5 87.39-14.75L87.39-14.75ZM82.69-15.7Q82.69-18.3 81.54-20.18 80.39-22.05 78.42-23.03 76.44-24 74.04-24L74.04-24Q70.59-24 68.17-21.8 65.74-19.6 65.39-15.7L65.39-15.7 82.69-15.7ZM91.69-13.75Q91.69-18 93.39-21.18 95.09-24.35 98.12-26.1 101.14-27.85 105.04-27.85L105.04-27.85Q110.09-27.85 113.37-25.4 116.64-22.95 117.69-18.6L117.69-18.6 112.79-18.6Q112.09-21.1 110.07-22.55 108.04-24 105.04-24L105.04-24Q101.14-24 98.74-21.33 96.34-18.65 96.34-13.75L96.34-13.75Q96.34-8.8 98.74-6.1 101.14-3.4 105.04-3.4L105.04-3.4Q108.04-3.4 110.04-4.8 112.04-6.2 112.79-8.8L112.79-8.8 117.69-8.8Q116.59-4.6 113.29-2.08 109.99 0.45 105.04 0.45L105.04 0.45Q101.14 0.45 98.12-1.3 95.09-3.05 93.39-6.25 91.69-9.45 91.69-13.75L91.69-13.75ZM136.44-23.65L129.29-23.65 129.29-7.5Q129.29-5.5 130.14-4.67 130.99-3.85 133.09-3.85L133.09-3.85 136.44-3.85 136.44 0 132.34 0Q128.54 0 126.64-1.75 124.74-3.5 124.74-7.5L124.74-7.5 124.74-23.65 121.19-23.65 121.19-27.4 124.74-27.4 124.74-34.3 129.29-34.3 129.29-27.4 136.44-27.4 136.44-23.65ZM161.69-27.4L166.24-27.4 166.24 0 161.69 0 161.69-4.05Q160.39-1.95 158.06-0.78 155.74 0.4 152.94 0.4L152.94 0.4Q149.74 0.4 147.19-0.93 144.64-2.25 143.16-4.9 141.69-7.55 141.69-11.35L141.69-11.35 141.69-27.4 146.19-27.4 146.19-11.95Q146.19-7.9 148.24-5.73 150.28-3.55 153.84-3.55L153.84-3.55Q157.49-3.55 159.59-5.8 161.69-8.05 161.69-12.35L161.69-12.35 161.69-27.4ZM198.93-14.75Q198.93-13.45 198.78-12L198.78-12 176.88-12Q177.13-7.95 179.66-5.68 182.18-3.4 185.78-3.4L185.78-3.4Q188.73-3.4 190.71-4.78 192.68-6.15 193.48-8.45L193.48-8.45 198.38-8.45Q197.28-4.5 193.98-2.02 190.68 0.45 185.78 0.45L185.78 0.45Q181.88 0.45 178.81-1.3 175.73-3.05 173.98-6.28 172.23-9.5 172.23-13.75L172.23-13.75Q172.23-18 173.93-21.2 175.63-24.4 178.71-26.13 181.78-27.85 185.78-27.85L185.78-27.85Q189.68-27.85 192.68-26.15 195.68-24.45 197.31-21.48 198.93-18.5 198.93-14.75L198.93-14.75ZM194.23-15.7Q194.23-18.3 193.08-20.18 191.93-22.05 189.96-23.03 187.98-24 185.58-24L185.58-24Q182.13-24 179.71-21.8 177.28-19.6 176.93-15.7L176.93-15.7 194.23-15.7Z" opacity="1" transform="matrix(1,0,0,1,0,0)" fill="#323660" class="wordmark-text-0" data-fill-palette-color="primary" id="text-0"></path></svg></g></svg></g></svg></g></svg></g><g transform="matrix(1,0,0,1,75.48692333284927,0)"><svg viewBox="0 0 93.45751333430142 66.92019473320349" height="66.92019473320349" width="93.45751333430142"><g><svg xmlns="http://www.w3.org/2000/svg" xmlns:xlink="http://www.w3.org/1999/xlink" version="1.1" x="0" y="0" viewBox="1.5 15.2 97.19999999999999 69.6" enable-background="new 0 0 100 100" xml:space="preserve" height="66.92019473320349" width="93.45751333430142" class="icon-icon-0" data-fill-palette-color="accent" id="icon-0"><g fill="#200d46" data-fill-palette-color="accent"><path d="M92.6 66.8v-5-3.2-9.2l0 0V23.7c0-4.7-3.8-8.5-8.5-8.5H52.4 15.9c-4.7 0-8.5 3.8-8.5 8.5v34.9 1.9 6.3c0 1.1-0.4 2.2-1.1 3L2 75.1c-0.3 0.4-0.5 0.9-0.5 1.4V79c0 3.2 2.6 5.8 5.8 5.8h85.6c3.2 0 5.8-2.6 5.8-5.8v-2.5c0-0.5-0.2-1-0.5-1.4l-4.3-5.3C93 69 92.6 67.9 92.6 66.8zM59.2 76.4c0 1.6-1.3 2.9-2.9 2.9H43.8c-1.6 0-2.9-1.3-2.9-2.9v-0.6h18.4V76.4zM84.2 61.8v5.5H15.9v-6.4-2.2V23.7c0 0 0 0 0 0h40.3 27.9c0 0 0 0 0 0v34.9 2.2 0.6h0V61.8zM66.5 47.9c-0.6-1.3 0-2.8 1.3-3.4 1.3-0.6 2.8 0 3.4 1.3 0.6 1.3 0 2.8-1.3 3.4-0.2 0.1-0.5 0.2-0.7 0.2C68 49.5 66.9 48.9 66.5 47.9zM72.9 58.6c-0.2 1.1-1.1 2-2.2 2.2-0.2 0-0.5 0-0.7 0-1.4-0.2-2.4-1.5-2.1-2.9 0.2-1.4 1.5-2.4 2.9-2.1C72.2 55.9 73.1 57.2 72.9 58.6zM62.8 35.6c-1.1-0.7-2.6-0.5-3.4 0.6L49.7 49c-1.9 0.1-3.7 1.2-4.8 2.9-1.9 2.9-1 6.8 1.9 8.7 2.9 1.9 6.8 1 8.7-1.9 1.1-1.7 1.3-3.8 0.6-5.6l7.5-14.1C64.3 37.8 63.9 36.3 62.8 35.6zM52.4 56.6c-0.8 1.2-2.3 1.5-3.5 0.8-1.2-0.8-1.5-2.3-0.8-3.5 0.8-1.2 2.3-1.5 3.5-0.8C52.8 53.9 53.1 55.4 52.4 56.6zM44.4 39.1c-1.6 0.6-3.1 1.3-4.5 2.3-1.4 1-2.6 2.2-3.6 3.5-0.2 0.3-0.5 0.7-0.7 1l-0.2 0.3 0 0.1 0 0c0 0 0 0 0 0l0 0-0.1 0.2-0.4 0.6c-0.4 0.7-0.7 1.5-1 2.3-0.6 1.6-1 3.3-1.1 5-0.1 1.7 0 3.4 0.4 5.1 0.4 1.5 1 3 1.7 4.4h-6c-0.4-1-0.8-2-1.1-3.1-0.6-2.2-0.8-4.5-0.7-6.7 0.1-2.3 0.5-4.5 1.3-6.7 0.4-1.1 0.8-2.1 1.4-3.2l0.4-0.7 0.1-0.2 0.1-0.2 0.2-0.4c0.3-0.5 0.6-1 0.9-1.4 1.3-1.9 3-3.5 4.8-4.9 1.8-1.4 3.9-2.5 6-3.3 2.2-0.8 4.4-1.3 6.7-1.4 2.3-0.1 4.6 0.1 6.9 0.6 0.5 0.1 1 0.3 1.5 0.4-0.4 0.3-0.8 0.7-1.1 1.1l-3.4 4.5c-1.2-0.2-2.4-0.3-3.6-0.3C47.7 38.3 46 38.6 44.4 39.1z" fill="#200d46" data-fill-palette-color="accent"></path></g></svg></g></svg></g><g></g></svg></g></svg></g></svg></g><g><path d="M101.122 48.781A122.216 122.216 0 0 1 294.398 48.781L290.031 48.781A117.849 117.849 0 0 0 105.489 48.781L101.122 48.781M101.122 198.419A122.216 122.216 0 0 0 294.398 198.419L290.031 198.419A117.849 117.849 0 0 1 105.489 198.419L101.122 198.419" fill="#820ad8" stroke="transparent" data-fill-palette-color="tertiary"></path></g></svg></g><defs></defs></svg><rect width="395.52" height="247.2" fill="none" stroke="none" visibility="hidden"></rect></g></svg></g></svg>